<svg data-v-8e88c225="" xmlns="http://www.w3.org/2000/svg" viewBox="0 0 107.95 66.146"
  class="flex-shrink-0 flex-grow-0">
  <path fill="#fbd100"
    d="M4.763 4.498h98.425v57.15H4.763zm23.043 49.496 2.538-.227.803-.415.802-.415.43-1.074.43-1.074-.002-2.574v-2.574l-.516-.846-.516-.845-.608-.387-.608-.387-1.455-.285-1.455-.285-3.654-.25-3.653-.248-.382-.317-.38-.316v-1.458l.334-.278.335-.278 2.245-.177 2.244-.176.734.285.733.286.16.798.16.798h5.825l-.132-1.844-.132-1.843-.435-.665-.435-.664-.858-.459-.857-.458-5.089-.104-5.088-.104-1.79.309-1.791.309-.59.383-.59.382-.454.858-.455.857-.014 2.514-.014 2.513.536.926.537.926.968.477.967.477 3.39.26 3.392.262 1.325.133 1.325.133.354.219.353.219.028.991.028.992-.5.366-.501.366h-5.455l-.53-.529-.528-.53v-1.322h-5.898l.157 1.87.157 1.87.49.842.49.842.78.381.78.381 1.853.176 1.852.175 2.646.03 2.646.029zm12.358-1.812.633-1.66 3.851.073 3.851.073.592 1.587.591 1.588 2.972.075 2.972.075-.129-.34-.129-.34-3.248-8.935-3.249-8.937-4.23.073-4.229.072-3.401 8.996-3.402 8.996-.004.207-.003.207 2.964-.074 2.964-.075.634-1.66zm2.236-5.946.123-.33 1-2.73.998-2.73.212.216.212.216.943 2.611.943 2.612v.466h-4.554zm26.002 6.88.395-.86 3.145-8.41 3.145-8.408-3.042.074-3.042.074-2.421 6.547-2.42 6.547-.245-.08-.244-.08-2.383-6.533-2.382-6.533H52.99l3.217 8.797 3.217 8.798.178.463.178.463h8.227zm25.733-1.72.077-2.448H82.02v-2.646h11.112v-3.969H82.021v-2.645h11.906v-4.234H76.2v18.528l8.93-.07 8.93-.07zM20.052 28.243l.077-2.315h4.554l4.553-.002.863-.526.862-.525.526-.863.526-.862v-3.973l.002-3.973-.49-.922-.491-.922-1.031-.59-1.031-.591-7.342-.004-7.342-.004V30.71l2.844-.076 2.844-.075zm.056-9.039v-2.272h6.004l.438.484.438.484v2.371l-.376.513-.375.514-3.064.089-3.065.089zm17.96 9.694.65-1.66 3.857.072 3.858.073.562 1.588.562 1.587 2.944.075 2.945.075v-.217l-3.073-8.433-3.072-8.433-.263-.734-.263-.734-4.225.073-4.225.072-3.253 8.613-3.253 8.613-.188.59-.187.59 2.987-.074 2.987-.075zm2.193-5.825.088-.209 1.032-2.847 1.032-2.847.212.213.213.213.938 2.592.939 2.591v.503h-4.542zm20.604 5.7.01-1.919 1.018-1.124 1.017-1.125.23.021.228.02 2.596 3.023 2.596 3.022h7.16l-1.059-1.257-1.059-1.257-3.33-3.835-3.328-3.836 4.162-4.168 4.162-4.168h-7.212l-3.45 3.572-3.449 3.572h-.303V12.17h-5.82v18.168l.176.176.176.177h5.468l.011-1.919zm21.95-2.83v-4.748l.621-.722.622-.723 1.56-.109 1.562-.109.596.563.595.562v10.034h6.085l-.006-5.49-.006-5.49-.503-1.11-.504-1.108-1.144-.593-1.144-.592-2.275-.115-2.274-.115-1.232.545-1.231.544-.595 1.007-.595 1.007-.08-1.521-.08-1.521h-6.058v14.552h6.086zm1.778-13.567 1.661-1.646v-.412h-5.703l-1.837 1.852-1.838 1.852h6.057z"></path>
  <path fill="#1c1c1c"
    d="M0 33.073V0h107.95v66.146H0zm103.188 0V4.498H4.763v57.15h98.425zM18.124 53.987l-1.852-.176-.78-.38-.78-.382-.491-.842-.49-.842-.157-1.87-.157-1.87h5.898v1.323l.529.53.529.528h5.455l.5-.366.502-.366-.029-.992-.028-.991-.353-.22-.354-.218-1.325-.133-1.325-.133-3.391-.261-3.39-.261-.968-.477-.968-.477-.536-.926-.537-.926.014-2.513.014-2.514.455-.857.454-.858.59-.382.59-.383 1.79-.31 1.791-.308 5.089.104 5.088.104.857.458.858.459.435.664.435.665.132 1.843.132 1.844h-5.826l-.16-.798-.159-.798-.733-.286-.733-.285-2.245.176-2.244.177-.336.278-.335.278v1.458l.382.316.381.317 3.653.249 3.654.249 1.455.285 1.455.285.608.387.608.387.516.845.515.846.001 2.574.002 2.574-.43 1.074-.43 1.074-.802.415-.802.415-2.539.227-2.538.227-2.646-.03-2.646-.03-1.852-.174zm15.481-.202.004-.207 3.402-8.996 3.402-8.996 4.229-.072 4.23-.073 3.248 8.937 3.248 8.936.13.34.128.339-2.972-.075-2.972-.075-.591-1.588-.592-1.587-3.85-.073-3.852-.073-.633 1.66-.634 1.66-2.964.076-2.964.074.003-.207zm13.226-7.451V46.1l-.943-2.612-.943-2.61-.212-.217-.212-.215-.999 2.729-.999 2.73-.123.33-.123.33h4.554zm12.77 7.178-.178-.463-3.217-8.797-3.217-8.798h5.92l2.381 6.533 2.383 6.533.244.08.244.08 2.421-6.547 2.42-6.546 3.043-.075 3.042-.074-3.145 8.409-3.145 8.408-.395.86-.396.86H59.78zM76.2 44.718v-9.264h17.727v4.234H82.021v2.645h11.112v3.969H82.021v2.646h12.191l-.077 2.447-.076 2.448-8.93.07-8.929.07zM14.288 21.44v-9.27l7.342.005 7.342.004 1.03.59 1.031.592.491.922.49.922v3.972l-.002 3.973-.525.863-.526.862-.862.526-.863.525-4.554.001-4.553.001-.077 2.316-.076 2.315-2.844.075-2.845.075v-9.27zm12.324-.655.376-.513V17.9l-.438-.484-.438-.484h-6.004v4.544l3.065-.09 3.064-.088zm5.02 9.334.187-.59 3.253-8.613 3.253-8.613 4.225-.072 4.225-.073.263.734.263.734 3.072 8.433 3.073 8.433v.217l-2.945-.075-2.944-.075-.562-1.587-.562-1.588-3.858-.073-3.857-.073-.65 1.66-.65 1.661-2.987.075-2.987.075zm13.083-7.087v-.252l-.939-2.591-.938-2.592-.213-.213-.212-.213-1.032 2.847-1.032 2.847-.088.21-.088.208h4.542zm10.495 7.483-.177-.176V12.17h5.821v7.144h.303l3.45-3.572 3.449-3.572h7.212l-4.162 4.168-4.163 4.168 3.33 3.836 3.33 3.835 1.058 1.257 1.06 1.257h-7.16l-2.597-3.022-2.596-3.022-.229-.02-.229-.022-1.017 1.125-1.017 1.124-.011 1.919-.01 1.918h-5.47l-.176-.177zm21.52-7.1V16.14h6.058l.078 1.52.08 1.522.595-1.007.595-1.007 1.232-.544 1.231-.545 2.275.115 2.274.115 1.144.592 1.145.593.503 1.109.504 1.108.006 5.49.006 5.49H88.37V20.659l-.595-.562-.595-.563-1.562.11-1.56.108-.622.723-.622.722v9.496H76.73v-7.276zm1.984-11.244 1.837-1.852h5.703v.412l-1.66 1.646-1.661 1.646h-6.057z"></path>
</svg>