<svg width="20" height="22" viewBox="0 0 20 22" fill="none" xmlns="http://www.w3.org/2000/svg">
<path d="M11 20.5C11 21.3284 10.3284 22 9.5 22C8.67157 22 8 21.3284 8 20.5C8 19.6716 8.67157 19 9.5 19C10.3284 19 11 19.6716 11 20.5Z" fill="white"/>
<path d="M20 20.5C20 21.3284 19.3284 22 18.5 22C17.6716 22 17 21.3284 17 20.5C17 19.6716 17.6716 19 18.5 19C19.3284 19 20 19.6716 20 20.5Z" fill="white"/>
<path d="M0 1H4C4.33333 1 5.1 1.3 5.5 2.5C5.57814 2.73442 5.72116 3.26524 5.90817 4M19 17H9C8.80333 16.1478 8.56412 15.1163 8.30365 14M17 4H5.90817M5.90817 4C6.49022 6.28676 7.49846 10.549 8.30365 14M17 14H8.30365" stroke="white" stroke-width="1.5"/>
</svg>
