<svg width="26" height="20" viewBox="0 0 26 20" fill="none" xmlns="http://www.w3.org/2000/svg">
<path d="M25 11H26C26 10.9277 25.9922 10.8557 25.9766 10.7851L25 11ZM17.5714 3.0357V2.0357C17.0191 2.0357 16.5714 2.48342 16.5714 3.0357H17.5714ZM22.5142 3.0357V2.0357V3.0357ZM23.3763 3.61941L24.353 3.40456C24.3412 3.35115 24.3251 3.29879 24.3048 3.24802L23.3763 3.61941ZM1 15.1071H0H1ZM1.92857 1.17856V2.17856V1.17856ZM17.5714 1.17856H18.5714C18.5714 0.626274 18.1237 0.178558 17.5714 0.178558V1.17856ZM16.5714 13.6232C16.5714 14.1754 17.0191 14.6232 17.5714 14.6232C18.1237 14.6232 18.5714 14.1754 18.5714 13.6232H16.5714ZM25 10H17.5714V12H25V10ZM18.5714 11V3.0357H16.5714V11H18.5714ZM17.5714 4.0357H22.5142V2.0357H17.5714V4.0357ZM22.5142 4.0357C22.4999 4.0357 22.486 4.03142 22.4741 4.02342L23.5954 2.36729C23.2762 2.15119 22.8996 2.0357 22.5142 2.0357V4.0357ZM22.4741 4.02342C22.4623 4.01542 22.4532 4.00406 22.4479 3.9908L24.3048 3.24802C24.1617 2.89014 23.9146 2.58337 23.5954 2.36729L22.4741 4.02342ZM22.3997 3.83426L24.0234 11.2149L25.9766 10.7851L24.353 3.40456L22.3997 3.83426ZM20.75 16.0357C20.75 17.0219 19.9505 17.8214 18.9643 17.8214V19.8214C21.0551 19.8214 22.75 18.1265 22.75 16.0357H20.75ZM18.9643 17.8214C17.9781 17.8214 17.1786 17.0219 17.1786 16.0357H15.1786C15.1786 18.1265 16.8735 19.8214 18.9643 19.8214V17.8214ZM17.1786 16.0357C17.1786 15.0495 17.9781 14.25 18.9643 14.25V12.25C16.8735 12.25 15.1786 13.9449 15.1786 16.0357H17.1786ZM18.9643 14.25C19.9505 14.25 20.75 15.0495 20.75 16.0357H22.75C22.75 13.9449 21.0551 12.25 18.9643 12.25V14.25ZM8.82143 16.0357C8.82143 17.0219 8.02194 17.8214 7.03571 17.8214V19.8214C9.12651 19.8214 10.8214 18.1265 10.8214 16.0357H8.82143ZM7.03571 17.8214C6.04949 17.8214 5.25 17.0219 5.25 16.0357H3.25C3.25 18.1265 4.94492 19.8214 7.03571 19.8214V17.8214ZM5.25 16.0357C5.25 15.0495 6.04949 14.25 7.03571 14.25V12.25C4.94492 12.25 3.25 13.9449 3.25 16.0357H5.25ZM7.03571 14.25C8.02194 14.25 8.82143 15.0495 8.82143 16.0357H10.8214C10.8214 13.9449 9.12651 12.25 7.03571 12.25V14.25ZM16.1786 15.0357H9.82143V17.0357H16.1786V15.0357ZM4.25 15.0357H1.92857V17.0357H4.25V15.0357ZM1.92857 15.0357C1.94751 15.0357 1.96568 15.0432 1.97908 15.0566L0.564865 16.4708C0.926544 16.8325 1.41708 17.0357 1.92857 17.0357V15.0357ZM1.97908 15.0566C1.99248 15.07 2 15.0882 2 15.1071H0C0 15.6186 0.203187 16.1092 0.564865 16.4708L1.97908 15.0566ZM2 15.1071V2.10713H0V15.1071H2ZM2 2.10713C2 2.12607 1.99247 2.14424 1.97908 2.15764L0.564865 0.743424C0.203188 1.1051 0 1.59564 0 2.10713H2ZM1.97908 2.15764C1.96568 2.17103 1.94752 2.17856 1.92857 2.17856V0.178558C1.41708 0.178558 0.926542 0.381747 0.564865 0.743424L1.97908 2.15764ZM1.92857 2.17856H17.5714V0.178558H1.92857V2.17856ZM16.5714 1.17856V13.6232H18.5714V1.17856H16.5714ZM18.5714 13.6232V11H16.5714V13.6232H18.5714ZM24 11V15.1071H26V11H24ZM24 15.1071C24 15.0882 24.0075 15.07 24.0209 15.0566L25.4351 16.4708C25.7968 16.1092 26 15.6186 26 15.1071H24ZM24.0209 15.0566C24.0343 15.0432 24.0525 15.0357 24.0714 15.0357V17.0357C24.5829 17.0357 25.0735 16.8325 25.4351 16.4708L24.0209 15.0566ZM24.0714 15.0357H21.75V17.0357H24.0714V15.0357Z" fill="#1E1E1E"/>
</svg>
